<svg xmlns="http://www.w3.org/2000/svg" viewBox="0 0 840 280" width="840" height="280" role="img" aria-label="Downloads: 1202">
<rect width="840" height="280" fill="#0a0a0a"/>
<text x="26" y="34" font-family="ui-sans-serif, -apple-system, Segoe UI, Roboto, Helvetica, Arial, sans-serif" font-size="15" font-weight="600" fill="#e9e9ea">Загрузки, всего</text>
<line x1="56" y1="242.0" x2="814" y2="242.0" stroke="#1a1a1c" stroke-width="1"/>
<text x="46" y="246.0" text-anchor="end" font-family="ui-sans-serif, -apple-system, Segoe UI, Roboto, Helvetica, Arial, sans-serif" font-size="11" fill="#7d7d85">330</text>
<line x1="56" y1="196.9" x2="814" y2="196.9" stroke="#1a1a1c" stroke-width="1"/>
<text x="46" y="200.9" text-anchor="end" font-family="ui-sans-serif, -apple-system, Segoe UI, Roboto, Helvetica, Arial, sans-serif" font-size="11" fill="#7d7d85">578</text>
<line x1="56" y1="152.0" x2="814" y2="152.0" stroke="#1a1a1c" stroke-width="1"/>
<text x="46" y="156.0" text-anchor="end" font-family="ui-sans-serif, -apple-system, Segoe UI, Roboto, Helvetica, Arial, sans-serif" font-size="11" fill="#7d7d85">825</text>
<line x1="56" y1="107.1" x2="814" y2="107.1" stroke="#1a1a1c" stroke-width="1"/>
<text x="46" y="111.1" text-anchor="end" font-family="ui-sans-serif, -apple-system, Segoe UI, Roboto, Helvetica, Arial, sans-serif" font-size="11" fill="#7d7d85">1072</text>
<line x1="56" y1="62.0" x2="814" y2="62.0" stroke="#1a1a1c" stroke-width="1"/>
<text x="46" y="66.0" text-anchor="end" font-family="ui-sans-serif, -apple-system, Segoe UI, Roboto, Helvetica, Arial, sans-serif" font-size="11" fill="#7d7d85">1320</text>
<line x1="56" y1="242.0" x2="814" y2="242.0" stroke="#2a2a2d" stroke-width="1"/>
<path d="M 56.0 242.0 L 56.0 220.7 L 164.3 204.2 L 272.6 200.9 L 380.9 159.5 L 489.1 136.4 L 597.4 111.3 L 705.7 95.5 L 814.0 83.5 L 814.0 242.0 Z" fill="#e9e9ea" fill-opacity="0.05"/>
<polyline points="56.0,220.7 164.3,204.2 272.6,200.9 380.9,159.5 489.1,136.4 597.4,111.3 705.7,95.5 814.0,83.5" fill="none" stroke="#e9e9ea" stroke-width="2" stroke-linejoin="round" stroke-linecap="round"/>
<circle cx="814.0" cy="83.5" r="4.5" fill="#e9e9ea" stroke="#0a0a0a" stroke-width="2"/>
<text x="814.0" y="69.5" text-anchor="end" font-family="ui-sans-serif, -apple-system, Segoe UI, Roboto, Helvetica, Arial, sans-serif" font-size="13" font-weight="600" fill="#e9e9ea">1202</text>
<text x="56.0" y="266" text-anchor="middle" font-family="ui-sans-serif, -apple-system, Segoe UI, Roboto, Helvetica, Arial, sans-serif" font-size="11" fill="#7d7d85">09-20</text>
<text x="272.6" y="266" text-anchor="middle" font-family="ui-sans-serif, -apple-system, Segoe UI, Roboto, Helvetica, Arial, sans-serif" font-size="11" fill="#7d7d85">09-22</text>
<text x="489.1" y="266" text-anchor="middle" font-family="ui-sans-serif, -apple-system, Segoe UI, Roboto, Helvetica, Arial, sans-serif" font-size="11" fill="#7d7d85">09-24</text>
<text x="597.4" y="266" text-anchor="middle" font-family="ui-sans-serif, -apple-system, Segoe UI, Roboto, Helvetica, Arial, sans-serif" font-size="11" fill="#7d7d85">09-25</text>
<text x="814.0" y="266" text-anchor="middle" font-family="ui-sans-serif, -apple-system, Segoe UI, Roboto, Helvetica, Arial, sans-serif" font-size="11" fill="#7d7d85">09-27</text>
</svg>
