<svg xmlns="http://www.w3.org/2000/svg" viewBox="0 0 840 280" width="840" height="280" role="img" aria-label="Downloads: 1207">
<rect width="840" height="280" fill="#ffffff"/>
<text x="26" y="34" font-family="ui-sans-serif, -apple-system, Segoe UI, Roboto, Helvetica, Arial, sans-serif" font-size="15" font-weight="600" fill="#141412">Загрузки, всего</text>
<line x1="56" y1="242.0" x2="814" y2="242.0" stroke="#ebeae6" stroke-width="1"/>
<text x="46" y="246.0" text-anchor="end" font-family="ui-sans-serif, -apple-system, Segoe UI, Roboto, Helvetica, Arial, sans-serif" font-size="11" fill="#5c5b55">330</text>
<line x1="56" y1="197.0" x2="814" y2="197.0" stroke="#ebeae6" stroke-width="1"/>
<text x="46" y="201.0" text-anchor="end" font-family="ui-sans-serif, -apple-system, Segoe UI, Roboto, Helvetica, Arial, sans-serif" font-size="11" fill="#5c5b55">580</text>
<line x1="56" y1="152.0" x2="814" y2="152.0" stroke="#ebeae6" stroke-width="1"/>
<text x="46" y="156.0" text-anchor="end" font-family="ui-sans-serif, -apple-system, Segoe UI, Roboto, Helvetica, Arial, sans-serif" font-size="11" fill="#5c5b55">830</text>
<line x1="56" y1="107.0" x2="814" y2="107.0" stroke="#ebeae6" stroke-width="1"/>
<text x="46" y="111.0" text-anchor="end" font-family="ui-sans-serif, -apple-system, Segoe UI, Roboto, Helvetica, Arial, sans-serif" font-size="11" fill="#5c5b55">1080</text>
<line x1="56" y1="62.0" x2="814" y2="62.0" stroke="#ebeae6" stroke-width="1"/>
<text x="46" y="66.0" text-anchor="end" font-family="ui-sans-serif, -apple-system, Segoe UI, Roboto, Helvetica, Arial, sans-serif" font-size="11" fill="#5c5b55">1330</text>
<line x1="56" y1="242.0" x2="814" y2="242.0" stroke="#d7d6d1" stroke-width="1"/>
<path d="M 56.0 242.0 L 56.0 220.9 L 164.3 204.6 L 272.6 201.3 L 380.9 160.3 L 489.1 137.4 L 597.4 112.6 L 705.7 96.9 L 814.0 84.1 L 814.0 242.0 Z" fill="#141412" fill-opacity="0.05"/>
<polyline points="56.0,220.9 164.3,204.6 272.6,201.3 380.9,160.3 489.1,137.4 597.4,112.6 705.7,96.9 814.0,84.1" fill="none" stroke="#141412" stroke-width="2" stroke-linejoin="round" stroke-linecap="round"/>
<circle cx="814.0" cy="84.1" r="4.5" fill="#141412" stroke="#ffffff" stroke-width="2"/>
<text x="814.0" y="70.1" text-anchor="end" font-family="ui-sans-serif, -apple-system, Segoe UI, Roboto, Helvetica, Arial, sans-serif" font-size="13" font-weight="600" fill="#141412">1207</text>
<text x="56.0" y="266" text-anchor="middle" font-family="ui-sans-serif, -apple-system, Segoe UI, Roboto, Helvetica, Arial, sans-serif" font-size="11" fill="#5c5b55">09-20</text>
<text x="272.6" y="266" text-anchor="middle" font-family="ui-sans-serif, -apple-system, Segoe UI, Roboto, Helvetica, Arial, sans-serif" font-size="11" fill="#5c5b55">09-22</text>
<text x="489.1" y="266" text-anchor="middle" font-family="ui-sans-serif, -apple-system, Segoe UI, Roboto, Helvetica, Arial, sans-serif" font-size="11" fill="#5c5b55">09-24</text>
<text x="597.4" y="266" text-anchor="middle" font-family="ui-sans-serif, -apple-system, Segoe UI, Roboto, Helvetica, Arial, sans-serif" font-size="11" fill="#5c5b55">09-25</text>
<text x="814.0" y="266" text-anchor="middle" font-family="ui-sans-serif, -apple-system, Segoe UI, Roboto, Helvetica, Arial, sans-serif" font-size="11" fill="#5c5b55">09-27</text>
</svg>
