<svg xmlns="http://www.w3.org/2000/svg" viewBox="0 0 840 280" width="840" height="280" role="img" aria-label="Downloads: 1525">
<rect width="840" height="280" fill="#ffffff"/>
<text x="26" y="34" font-family="ui-sans-serif, -apple-system, Segoe UI, Roboto, Helvetica, Arial, sans-serif" font-size="15" font-weight="600" fill="#141412">Загрузки, всего</text>
<line x1="56" y1="242.0" x2="814" y2="242.0" stroke="#ebeae6" stroke-width="1"/>
<text x="46" y="246.0" text-anchor="end" font-family="ui-sans-serif, -apple-system, Segoe UI, Roboto, Helvetica, Arial, sans-serif" font-size="11" fill="#5c5b55">200</text>
<line x1="56" y1="197.0" x2="814" y2="197.0" stroke="#ebeae6" stroke-width="1"/>
<text x="46" y="201.0" text-anchor="end" font-family="ui-sans-serif, -apple-system, Segoe UI, Roboto, Helvetica, Arial, sans-serif" font-size="11" fill="#5c5b55">700</text>
<line x1="56" y1="152.0" x2="814" y2="152.0" stroke="#ebeae6" stroke-width="1"/>
<text x="46" y="156.0" text-anchor="end" font-family="ui-sans-serif, -apple-system, Segoe UI, Roboto, Helvetica, Arial, sans-serif" font-size="11" fill="#5c5b55">1200</text>
<line x1="56" y1="107.0" x2="814" y2="107.0" stroke="#ebeae6" stroke-width="1"/>
<text x="46" y="111.0" text-anchor="end" font-family="ui-sans-serif, -apple-system, Segoe UI, Roboto, Helvetica, Arial, sans-serif" font-size="11" fill="#5c5b55">1700</text>
<line x1="56" y1="62.0" x2="814" y2="62.0" stroke="#ebeae6" stroke-width="1"/>
<text x="46" y="66.0" text-anchor="end" font-family="ui-sans-serif, -apple-system, Segoe UI, Roboto, Helvetica, Arial, sans-serif" font-size="11" fill="#5c5b55">2200</text>
<line x1="56" y1="242.0" x2="814" y2="242.0" stroke="#d7d6d1" stroke-width="1"/>
<path d="M 56.0 242.0 L 56.0 219.8 L 106.5 211.6 L 157.1 210.0 L 207.6 189.4 L 258.1 178.0 L 308.7 165.6 L 359.2 157.8 L 409.7 151.2 L 460.3 145.0 L 510.8 138.0 L 561.3 124.6 L 611.9 104.8 L 662.4 98.9 L 712.9 90.7 L 763.5 85.8 L 814.0 122.8 L 814.0 242.0 Z" fill="#141412" fill-opacity="0.05"/>
<polyline points="56.0,219.8 106.5,211.6 157.1,210.0 207.6,189.4 258.1,178.0 308.7,165.6 359.2,157.8 409.7,151.2 460.3,145.0 510.8,138.0 561.3,124.6 611.9,104.8 662.4,98.9 712.9,90.7 763.5,85.8 814.0,122.8" fill="none" stroke="#141412" stroke-width="2" stroke-linejoin="round" stroke-linecap="round"/>
<circle cx="814.0" cy="122.8" r="4.5" fill="#141412" stroke="#ffffff" stroke-width="2"/>
<text x="814.0" y="108.8" text-anchor="end" font-family="ui-sans-serif, -apple-system, Segoe UI, Roboto, Helvetica, Arial, sans-serif" font-size="13" font-weight="600" fill="#141412">1525</text>
<text x="56.0" y="266" text-anchor="middle" font-family="ui-sans-serif, -apple-system, Segoe UI, Roboto, Helvetica, Arial, sans-serif" font-size="11" fill="#5c5b55">09-20</text>
<text x="258.1" y="266" text-anchor="middle" font-family="ui-sans-serif, -apple-system, Segoe UI, Roboto, Helvetica, Arial, sans-serif" font-size="11" fill="#5c5b55">09-24</text>
<text x="460.3" y="266" text-anchor="middle" font-family="ui-sans-serif, -apple-system, Segoe UI, Roboto, Helvetica, Arial, sans-serif" font-size="11" fill="#5c5b55">09-28</text>
<text x="611.9" y="266" text-anchor="middle" font-family="ui-sans-serif, -apple-system, Segoe UI, Roboto, Helvetica, Arial, sans-serif" font-size="11" fill="#5c5b55">10-01</text>
<text x="814.0" y="266" text-anchor="middle" font-family="ui-sans-serif, -apple-system, Segoe UI, Roboto, Helvetica, Arial, sans-serif" font-size="11" fill="#5c5b55">10-05</text>
</svg>
