<svg xmlns="http://www.w3.org/2000/svg" viewBox="0 0 840 280" width="840" height="280" role="img" aria-label="Downloads: 1628">
<rect width="840" height="280" fill="#0a0a0a"/>
<text x="26" y="34" font-family="ui-sans-serif, -apple-system, Segoe UI, Roboto, Helvetica, Arial, sans-serif" font-size="15" font-weight="600" fill="#e9e9ea">Загрузки, всего</text>
<line x1="56" y1="242.0" x2="814" y2="242.0" stroke="#1a1a1c" stroke-width="1"/>
<text x="46" y="246.0" text-anchor="end" font-family="ui-sans-serif, -apple-system, Segoe UI, Roboto, Helvetica, Arial, sans-serif" font-size="11" fill="#7d7d85">200</text>
<line x1="56" y1="197.0" x2="814" y2="197.0" stroke="#1a1a1c" stroke-width="1"/>
<text x="46" y="201.0" text-anchor="end" font-family="ui-sans-serif, -apple-system, Segoe UI, Roboto, Helvetica, Arial, sans-serif" font-size="11" fill="#7d7d85">700</text>
<line x1="56" y1="152.0" x2="814" y2="152.0" stroke="#1a1a1c" stroke-width="1"/>
<text x="46" y="156.0" text-anchor="end" font-family="ui-sans-serif, -apple-system, Segoe UI, Roboto, Helvetica, Arial, sans-serif" font-size="11" fill="#7d7d85">1200</text>
<line x1="56" y1="107.0" x2="814" y2="107.0" stroke="#1a1a1c" stroke-width="1"/>
<text x="46" y="111.0" text-anchor="end" font-family="ui-sans-serif, -apple-system, Segoe UI, Roboto, Helvetica, Arial, sans-serif" font-size="11" fill="#7d7d85">1700</text>
<line x1="56" y1="62.0" x2="814" y2="62.0" stroke="#1a1a1c" stroke-width="1"/>
<text x="46" y="66.0" text-anchor="end" font-family="ui-sans-serif, -apple-system, Segoe UI, Roboto, Helvetica, Arial, sans-serif" font-size="11" fill="#7d7d85">2200</text>
<line x1="56" y1="242.0" x2="814" y2="242.0" stroke="#2a2a2d" stroke-width="1"/>
<path d="M 56.0 242.0 L 56.0 219.8 L 100.6 211.6 L 145.2 210.0 L 189.8 189.4 L 234.4 178.0 L 278.9 165.6 L 323.5 157.8 L 368.1 151.2 L 412.7 145.0 L 457.3 138.0 L 501.9 124.6 L 546.5 104.8 L 591.1 98.9 L 635.6 90.7 L 680.2 85.8 L 724.8 121.8 L 769.4 117.5 L 814.0 113.5 L 814.0 242.0 Z" fill="#e9e9ea" fill-opacity="0.05"/>
<polyline points="56.0,219.8 100.6,211.6 145.2,210.0 189.8,189.4 234.4,178.0 278.9,165.6 323.5,157.8 368.1,151.2 412.7,145.0 457.3,138.0 501.9,124.6 546.5,104.8 591.1,98.9 635.6,90.7 680.2,85.8 724.8,121.8 769.4,117.5 814.0,113.5" fill="none" stroke="#e9e9ea" stroke-width="2" stroke-linejoin="round" stroke-linecap="round"/>
<circle cx="814.0" cy="113.5" r="4.5" fill="#e9e9ea" stroke="#0a0a0a" stroke-width="2"/>
<text x="814.0" y="99.5" text-anchor="end" font-family="ui-sans-serif, -apple-system, Segoe UI, Roboto, Helvetica, Arial, sans-serif" font-size="13" font-weight="600" fill="#e9e9ea">1628</text>
<text x="56.0" y="266" text-anchor="middle" font-family="ui-sans-serif, -apple-system, Segoe UI, Roboto, Helvetica, Arial, sans-serif" font-size="11" fill="#7d7d85">09-20</text>
<text x="234.4" y="266" text-anchor="middle" font-family="ui-sans-serif, -apple-system, Segoe UI, Roboto, Helvetica, Arial, sans-serif" font-size="11" fill="#7d7d85">09-24</text>
<text x="412.7" y="266" text-anchor="middle" font-family="ui-sans-serif, -apple-system, Segoe UI, Roboto, Helvetica, Arial, sans-serif" font-size="11" fill="#7d7d85">09-28</text>
<text x="635.6" y="266" text-anchor="middle" font-family="ui-sans-serif, -apple-system, Segoe UI, Roboto, Helvetica, Arial, sans-serif" font-size="11" fill="#7d7d85">10-03</text>
<text x="814.0" y="266" text-anchor="middle" font-family="ui-sans-serif, -apple-system, Segoe UI, Roboto, Helvetica, Arial, sans-serif" font-size="11" fill="#7d7d85">10-07</text>
</svg>
