<svg xmlns="http://www.w3.org/2000/svg" viewBox="0 0 840 280" width="840" height="280" role="img" aria-label="Downloads: 1556">
<rect width="840" height="280" fill="#0a0a0a"/>
<text x="26" y="34" font-family="ui-sans-serif, -apple-system, Segoe UI, Roboto, Helvetica, Arial, sans-serif" font-size="15" font-weight="600" fill="#e9e9ea">Загрузки, всего</text>
<line x1="56" y1="242.0" x2="814" y2="242.0" stroke="#1a1a1c" stroke-width="1"/>
<text x="46" y="246.0" text-anchor="end" font-family="ui-sans-serif, -apple-system, Segoe UI, Roboto, Helvetica, Arial, sans-serif" font-size="11" fill="#7d7d85">200</text>
<line x1="56" y1="197.0" x2="814" y2="197.0" stroke="#1a1a1c" stroke-width="1"/>
<text x="46" y="201.0" text-anchor="end" font-family="ui-sans-serif, -apple-system, Segoe UI, Roboto, Helvetica, Arial, sans-serif" font-size="11" fill="#7d7d85">700</text>
<line x1="56" y1="152.0" x2="814" y2="152.0" stroke="#1a1a1c" stroke-width="1"/>
<text x="46" y="156.0" text-anchor="end" font-family="ui-sans-serif, -apple-system, Segoe UI, Roboto, Helvetica, Arial, sans-serif" font-size="11" fill="#7d7d85">1200</text>
<line x1="56" y1="107.0" x2="814" y2="107.0" stroke="#1a1a1c" stroke-width="1"/>
<text x="46" y="111.0" text-anchor="end" font-family="ui-sans-serif, -apple-system, Segoe UI, Roboto, Helvetica, Arial, sans-serif" font-size="11" fill="#7d7d85">1700</text>
<line x1="56" y1="62.0" x2="814" y2="62.0" stroke="#1a1a1c" stroke-width="1"/>
<text x="46" y="66.0" text-anchor="end" font-family="ui-sans-serif, -apple-system, Segoe UI, Roboto, Helvetica, Arial, sans-serif" font-size="11" fill="#7d7d85">2200</text>
<line x1="56" y1="242.0" x2="814" y2="242.0" stroke="#2a2a2d" stroke-width="1"/>
<path d="M 56.0 242.0 L 56.0 219.8 L 103.4 211.6 L 150.8 210.0 L 198.1 189.4 L 245.5 178.0 L 292.9 165.6 L 340.2 157.8 L 387.6 151.2 L 435.0 145.0 L 482.4 138.0 L 529.8 124.6 L 577.1 104.8 L 624.5 98.9 L 671.9 90.7 L 719.2 85.8 L 766.6 121.8 L 814.0 120.0 L 814.0 242.0 Z" fill="#e9e9ea" fill-opacity="0.05"/>
<polyline points="56.0,219.8 103.4,211.6 150.8,210.0 198.1,189.4 245.5,178.0 292.9,165.6 340.2,157.8 387.6,151.2 435.0,145.0 482.4,138.0 529.8,124.6 577.1,104.8 624.5,98.9 671.9,90.7 719.2,85.8 766.6,121.8 814.0,120.0" fill="none" stroke="#e9e9ea" stroke-width="2" stroke-linejoin="round" stroke-linecap="round"/>
<circle cx="814.0" cy="120.0" r="4.5" fill="#e9e9ea" stroke="#0a0a0a" stroke-width="2"/>
<text x="814.0" y="106.0" text-anchor="end" font-family="ui-sans-serif, -apple-system, Segoe UI, Roboto, Helvetica, Arial, sans-serif" font-size="13" font-weight="600" fill="#e9e9ea">1556</text>
<text x="56.0" y="266" text-anchor="middle" font-family="ui-sans-serif, -apple-system, Segoe UI, Roboto, Helvetica, Arial, sans-serif" font-size="11" fill="#7d7d85">09-20</text>
<text x="245.5" y="266" text-anchor="middle" font-family="ui-sans-serif, -apple-system, Segoe UI, Roboto, Helvetica, Arial, sans-serif" font-size="11" fill="#7d7d85">09-24</text>
<text x="435.0" y="266" text-anchor="middle" font-family="ui-sans-serif, -apple-system, Segoe UI, Roboto, Helvetica, Arial, sans-serif" font-size="11" fill="#7d7d85">09-28</text>
<text x="624.5" y="266" text-anchor="middle" font-family="ui-sans-serif, -apple-system, Segoe UI, Roboto, Helvetica, Arial, sans-serif" font-size="11" fill="#7d7d85">10-02</text>
<text x="814.0" y="266" text-anchor="middle" font-family="ui-sans-serif, -apple-system, Segoe UI, Roboto, Helvetica, Arial, sans-serif" font-size="11" fill="#7d7d85">10-06</text>
</svg>
